<svg width="65" height="62" viewBox="0 0 65 62" fill="none" xmlns="http://www.w3.org/2000/svg">
<path fill-rule="evenodd" clip-rule="evenodd" d="M28.4259 56.5522C22.0259 54.7562 15.3253 53.8502 8.82534 53.0202C7.42534 52.8462 6.12553 53.8172 6.02553 55.1852C5.82553 56.5542 6.82612 57.8061 8.12612 57.9801C14.4261 58.7792 20.9255 59.6341 27.0255 61.3631C28.3255 61.7381 29.7261 60.9662 30.1261 59.6382C30.5261 58.3112 29.7259 56.9282 28.4259 56.5522Z" fill="#118DA8"/>
<path fill-rule="evenodd" clip-rule="evenodd" d="M36.3017 31.2548C26.0017 20.7438 14.4017 11.5858 4.30166 0.792848C3.40166 -0.215152 1.80166 -0.269152 0.801662 0.671848C-0.198338 1.61385 -0.297948 3.19785 0.702052 4.20585C10.8021 15.0298 22.4021 24.2178 32.7021 34.7598C33.7021 35.7439 35.3017 35.7578 36.3017 34.7898C37.2017 33.8228 37.3017 32.2388 36.3017 31.2548Z" fill="#118DA8"/>
<path fill-rule="evenodd" clip-rule="evenodd" d="M58.1264 2.63576C58.4264 8.65176 58.7259 14.6678 59.0259 20.6848C59.0259 22.0628 60.2264 23.1268 61.6264 23.0598C63.0264 22.9918 64.0259 21.8188 64.0259 20.4398C63.7259 14.4138 63.4264 8.38876 63.1264 2.36376C63.0264 0.985757 61.8262 -0.0712432 60.4262 0.00375683C59.1262 0.0787568 58.0264 1.25876 58.1264 2.63576Z" fill="#118DA8"/>
</svg>
